<?xml version="1.0" encoding="utf-8"?>
<!-- Generator: Adobe Illustrator 25.0.0, SVG Export Plug-In . SVG Version: 6.00 Build 0)  -->
<svg version="1.1" id="图层_1" xmlns="http://www.w3.org/2000/svg" xmlns:xlink="http://www.w3.org/1999/xlink" x="0px" y="0px"
	 viewBox="0 0 1024 1024" style="enable-background:new 0 0 1024 1024;" xml:space="preserve">
<circle cx="3078.9" cy="-1664.3" r="1000"/>
<circle cx="3078.9" cy="-1664.3" r="750"/>
<circle cx="3078.9" cy="-1664.3" r="625"/>
<circle cx="3078.9" cy="-1664.3" r="500"/>
<circle cx="3078.9" cy="-1664.3" r="375"/>
<circle cx="3078.9" cy="-1664.3" r="250"/>
<circle cx="3078.9" cy="-1664.3" r="125"/>
<circle cx="3078.9" cy="-1664.3" r="875"/>
<g>
	<path d="M146.3,391.3L219.4,518c86.1-49.8,186-78.3,292.6-78.3s206.5,28.5,292.6,78.3l73.1-126.7C770.1,329,645.2,293.4,512,293.4
		S253.9,329,146.3,391.3z"/>
	<path d="M0,137.9l73.1,126.7c129.1-74.7,279-117.5,438.9-117.5s309.8,42.8,438.9,117.5l73.1-126.7C873.4,50.8,698.5,0.9,512,0.9
		S150.6,50.8,0,137.9z"/>
	<path d="M292.6,644.7l73.1,126.7c43-24.9,93-39.2,146.3-39.2s103.3,14.3,146.3,39.2l73.1-126.7c-64.5-37.3-139.5-58.7-219.4-58.7
		S357.1,607.3,292.6,644.7z"/>
</g>
<path d="M517.6,1024L517.6,1024c-55.2,0-100-44.8-100-100v0c0-55.2,44.8-100,100-100h0c55.2,0,100,44.8,100,100v0
	C617.6,979.2,572.9,1024,517.6,1024z"/>
</svg>
