<?xml version="1.0" encoding="utf-8"?>
<!-- Generator: Adobe Illustrator 25.0.0, SVG Export Plug-In . SVG Version: 6.00 Build 0)  -->
<svg version="1.1" id="图层_1" xmlns="http://www.w3.org/2000/svg" xmlns:xlink="http://www.w3.org/1999/xlink" x="0px" y="0px"
	 viewBox="0 0 400 400" style="enable-background:new 0 0 400 400;" xml:space="preserve">
<path d="M231.9,266.4l-28.3-28.3c-1-1-2.3-1.5-3.6-1.5c-1.3,0-2.6,0.5-3.6,1.5l-28.3,28.3c-2,2-2,5.1,0,7.1s5.2,2,7.1,0l20-20v90.9
	c0,2.8,2.2,5,5,5s5-2.3,5-5v-90.5l19.6,19.6c2,2,5.1,2,7.1,0C233.8,271.6,233.8,268.4,231.9,266.4z"/>
<path d="M90.3,293"/>
<path d="M266.1,282.9c-2.8,0-5,2.2-5,5l0,0c0,2.8,2.2,5,5,5c29.1,0,33.8,0,33.8,0c35.5-0.5,64.1-29.4,64.1-65c0-35.9-29.1-65-65-65
	c-0.5,0-1,0-1.5,0c-9.3-40.3-45.5-70.4-88.7-70.4c-34.1,0-63.9,18.8-79.4,46.6c-3.4-1.6-7.3-2.6-11.4-2.6
	c-14.6,0-26.5,11.9-26.5,26.5c0,0.2,0,0.4,0,0.6c-31.5,4.5-55.6,31.6-55.6,64.3c0,35,27.6,63.5,62.3,64.9c0,0,8.8,0,39,0
	c2.6,0,4.7-2.1,4.7-4.7v-0.3c0-2.8-2.2-5-5-5l-41-0.2C67.9,280,46,256.5,46,227.8c0-27.9,20.8-51,47.7-54.5c1-0.1,1.9-0.2,2.9-0.3
	c0.3,0,0.6-0.1,1-0.1c0.3,0,0.7,0,1-0.1c0.8,0,1.6-0.1,2.3-0.1c1.4,0,2.5,0.1,4.1,0.2c0,0-0.2-0.2-0.3-0.4c-0.1-0.2-0.3-0.5-0.5-0.7
	c-0.1-0.1-0.1-0.2-0.2-0.3c-0.2-0.3-0.3-0.5-0.5-0.8c-0.1-0.1-0.1-0.2-0.2-0.4c-0.1-0.3-0.3-0.6-0.4-0.8c-0.1-0.1-0.1-0.2-0.1-0.4
	c-0.1-0.3-0.2-0.6-0.3-0.9c-0.1-0.2-0.1-0.3-0.2-0.5c-0.1-0.3-0.2-0.5-0.2-0.8c0-0.2-0.1-0.4-0.1-0.6c-0.1-0.2-0.1-0.5-0.2-0.8
	c0-0.2-0.1-0.5-0.1-0.7s-0.1-0.4-0.1-0.7c-0.1-1.2-0.1-2.4,0.1-3.7c1-7.3,6.9-13.2,14.3-14.1c3.3-0.4,6.4,0.2,9.1,1.4v0.1
	c1.8,0.9,3.5,2.1,4.8,3.5c1.5,1.6,4,1.1,4.9-0.9c0.1-0.2,0.2-0.5,0.3-0.7c0-0.1,0.1-0.2,0.1-0.2c0.4-0.8,0.8-1.6,1.2-2.4
	c0.2-0.3,0.3-0.6,0.5-1c13.4-26.1,40.7-44,72.1-44c38,0,69.8,26.1,78.6,61.4l0,0c0.2,0.8,0.4,1.7,0.6,2.5c0.1,0.6,0.2,1.2,0.4,1.8
	c0.1,0.5,0.2,1.1,0.3,1.6c0.1,0.8,0.3,1.6,0.4,2.5c0.5,3.7,0.8,7.4,0.8,11.2c0,8.7-1.4,17.1-3.9,24.9c-1,3.2,1.4,6.5,4.8,6.5l0,0
	c2.2,0,4.1-1.4,4.8-3.4c2.8-8.8,4.4-18.2,4.4-27.9c0-3.6-0.2-7.1-0.6-10.6c30.3,0.1,54.8,24.7,54.8,55c0,30.1-24.2,54.5-54.2,55l0,0
	"/>
</svg>
