<?xml version="1.0" encoding="utf-8"?>
<!-- Generator: Adobe Illustrator 25.0.0, SVG Export Plug-In . SVG Version: 6.00 Build 0)  -->
<svg version="1.1" id="图层_1" xmlns="http://www.w3.org/2000/svg" xmlns:xlink="http://www.w3.org/1999/xlink" x="0px" y="0px"
	 viewBox="0 0 400 400" style="enable-background:new 0 0 400 400;" xml:space="preserve">
<circle cx="119" cy="108" r="38"/>
<path d="M363.6,0H36.4C16.3,0,0,16.3,0,36.4v327.1C0,383.7,16.3,400,36.4,400H200v-20H56.4C36.3,380,20,363.7,20,343.6V56.4
	C20,36.3,36.3,20,56.4,20h287.1c20.1,0,36.4,16.3,36.4,36.4V200h20V36.4C400,16.3,383.7,0,363.6,0z"/>
<g>
	<path d="M375,330.1H247.5c-6.2,0-11.2-5-11.2-11.2v0c0-6.2,5-11.2,11.2-11.2H375c6.2,0,11.2,5,11.2,11.2v0
		C386.2,325.1,381.2,330.1,375,330.1z"/>
	<path d="M322.5,255.1v127.5c0,6.2-5,11.2-11.2,11.2l0,0c-6.2,0-11.2-5-11.2-11.2V255.1c0-6.2,5-11.2,11.2-11.2l0,0
		C317.5,243.9,322.5,248.9,322.5,255.1z"/>
</g>
<path d="M205.1,266.3c12.6,0,24.5,3.1,35,8.5c11.4-20.4,32-34.9,56.1-38.1L260.3,55.8L166,255.7l-8.4-92.6L61.1,310.9
	c0,0,74.6,0.6,75.3-0.8C148.5,284.2,174.7,266.3,205.1,266.3z"/>
</svg>
