<?xml version="1.0" encoding="utf-8"?>
<!-- Generator: Adobe Illustrator 25.0.0, SVG Export Plug-In . SVG Version: 6.00 Build 0)  -->
<svg version="1.1" id="图层_1" xmlns="http://www.w3.org/2000/svg" xmlns:xlink="http://www.w3.org/1999/xlink" x="0px" y="0px"
	 viewBox="0 0 1024 1024" style="enable-background:new 0 0 1024 1024;" xml:space="preserve">
<g>
	<path d="M562,143l0,800c0,27.6-22.4,50-50,50l0,0c-27.6,0-50-22.4-50-50l0-800c0-27.6,22.4-50,50-50l0,0
		C539.6,93,562,115.4,562,143z"/>
	<path d="M540.7,116.4L328.6,328.5c-19.5,19.5-51.2,19.5-70.7,0l0,0c-19.5-19.5-19.5-51.2,0-70.7L470,45.6
		c19.5-19.5,51.2-19.5,70.7,0l0,0C560.3,65.2,560.3,96.8,540.7,116.4z"/>
	<path d="M695.4,328.5L483.3,116.4c-19.5-19.5-19.5-51.2,0-70.7l0,0c19.5-19.5,51.2-19.5,70.7,0l212.1,212.1
		c19.5,19.5,19.5,51.2,0,70.7l0,0C746.6,348,714.9,348,695.4,328.5z"/>
</g>
</svg>
