<?xml version="1.0" encoding="utf-8"?>
<!-- Generator: Adobe Illustrator 25.0.0, SVG Export Plug-In . SVG Version: 6.00 Build 0)  -->
<svg version="1.1" id="图层_1" xmlns="http://www.w3.org/2000/svg" xmlns:xlink="http://www.w3.org/1999/xlink" x="0px" y="0px"
	 viewBox="0 0 1024 1024" style="enable-background:new 0 0 1024 1024;" xml:space="preserve">
<g>
	<path d="M536.3,301.8L63.4,774.7c-14.5,14.5-38,14.5-52.5,0l0,0c-14.5-14.5-14.5-38,0-52.5l472.9-472.9c14.5-14.5,38-14.5,52.5,0
		l0,0C550.8,263.8,550.8,287.3,536.3,301.8z"/>
	<path d="M540.2,249.3l472.9,472.9c14.5,14.5,14.5,38,0,52.5l0,0c-14.5,14.5-38,14.5-52.5,0L487.7,301.8c-14.5-14.5-14.5-38,0-52.5
		l0,0C502.2,234.8,525.7,234.8,540.2,249.3z"/>
</g>
</svg>
