<?xml version="1.0" encoding="utf-8"?>
<!-- Generator: Adobe Illustrator 25.0.0, SVG Export Plug-In . SVG Version: 6.00 Build 0)  -->
<svg version="1.1" id="图层_1" xmlns="http://www.w3.org/2000/svg" xmlns:xlink="http://www.w3.org/1999/xlink" x="0px" y="0px"
	 viewBox="0 0 1024 1024" style="enable-background:new 0 0 1024 1024;" xml:space="preserve">
<g>
	<path d="M462,881V81c0-27.6,22.4-50,50-50l0,0c27.6,0,50,22.4,50,50v800c0,27.6-22.4,50-50,50l0,0C484.4,931,462,908.6,462,881z"/>
	<path d="M483.3,907.6l212.1-212.1c19.5-19.5,51.2-19.5,70.7,0l0,0c19.5,19.5,19.5,51.2,0,70.7L554,978.4
		c-19.5,19.5-51.2,19.5-70.7,0l0,0C463.7,958.8,463.7,927.2,483.3,907.6z"/>
	<path d="M328.6,695.5l212.1,212.1c19.5,19.5,19.5,51.2,0,70.7l0,0c-19.5,19.5-51.2,19.5-70.7,0L257.9,766.2
		c-19.5-19.5-19.5-51.2,0-70.7l0,0C277.4,676,309.1,676,328.6,695.5z"/>
</g>
</svg>
