<?xml version="1.0" encoding="utf-8"?>
<!-- Generator: Adobe Illustrator 25.0.0, SVG Export Plug-In . SVG Version: 6.00 Build 0)  -->
<svg version="1.1" id="图层_1" xmlns="http://www.w3.org/2000/svg" xmlns:xlink="http://www.w3.org/1999/xlink" x="0px" y="0px"
	 viewBox="0 0 1024 1024" style="enable-background:new 0 0 1024 1024;" xml:space="preserve">
<g>
	<path d="M487.7,722.2l472.9-472.9c14.5-14.5,38-14.5,52.5,0l0,0c14.5,14.5,14.5,38,0,52.5L540.2,774.7c-14.5,14.5-38,14.5-52.5,0
		l0,0C473.2,760.2,473.2,736.7,487.7,722.2z"/>
	<path d="M483.8,774.7L10.9,301.8c-14.5-14.5-14.5-38,0-52.5l0,0c14.5-14.5,38-14.5,52.5,0l472.9,472.9c14.5,14.5,14.5,38,0,52.5
		l0,0C521.8,789.2,498.3,789.2,483.8,774.7z"/>
</g>
</svg>
