<?xml version="1.0" encoding="utf-8"?>
<!-- Generator: Adobe Illustrator 25.0.0, SVG Export Plug-In . SVG Version: 6.00 Build 0)  -->
<svg version="1.1" id="图层_1" xmlns="http://www.w3.org/2000/svg" xmlns:xlink="http://www.w3.org/1999/xlink" x="0px" y="0px"
	 viewBox="0 0 1024 1024" style="enable-background:new 0 0 1024 1024;" xml:space="preserve">
<style type="text/css">
	.st0{fill:#040000;}
</style>
<path class="st0" d="M0,213.6l73.1,73.1C185.5,174.4,340.6,104.9,512,104.9s326.5,69.5,438.9,181.8l73.1-73.1
	C893,82.5,711.9,1.5,512,1.5S131,82.5,0,213.6z"/>
<path class="st0" d="M292.6,506.2l73.1,73.1c37.4-37.4,89.2-60.6,146.3-60.6s108.8,23.2,146.3,60.6l73.1-73.1
	C675.3,450,597.7,415.3,512,415.3S348.7,450,292.6,506.2z"/>
<path class="st0" d="M146.3,359.9l73.1,73.1c74.9-74.9,178.3-121.2,292.6-121.2S729.7,358.1,804.6,433l73.1-73.1
	C784.1,266.3,654.8,208.4,512,208.4S239.9,266.3,146.3,359.9z"/>
<path class="st0" d="M512,736L512,736c-35.1,0-63.5-28.4-63.5-63.5v0c0-35.1,28.4-63.5,63.5-63.5h0c35.1,0,63.5,28.4,63.5,63.5v0
	C575.5,707.6,547.1,736,512,736z"/>
</svg>
