<?xml version="1.0" encoding="utf-8"?>
<!-- Generator: Adobe Illustrator 25.0.0, SVG Export Plug-In . SVG Version: 6.00 Build 0)  -->
<svg version="1.1" id="图层_1" xmlns="http://www.w3.org/2000/svg" xmlns:xlink="http://www.w3.org/1999/xlink" x="0px" y="0px"
	 viewBox="0 0 1024 1024" style="enable-background:new 0 0 1024 1024;" xml:space="preserve">
<path d="M687,824.1H340c-76.5,0-138.5-62-138.5-138.5v-347c0-76.5,62-138.5,138.5-138.5H687c76.5,0,138.5,62,138.5,138.5v347.1
	C825.4,762.1,763.4,824.1,687,824.1z"/>
<path d="M942.1,0.1H84.9C38.8,0.1,1.5,37.4,1.5,83.5v857.2c0,46.1,37.3,83.4,83.4,83.4h857.2c46.1,0,83.4-37.3,83.4-83.4V83.5
	C1025.5,37.4,988.2,0.1,942.1,0.1z M925.5,924.1h-824v-824h824V924.1z"/>
</svg>
