<?xml version="1.0" encoding="utf-8"?>
<!-- Generator: Adobe Illustrator 25.0.0, SVG Export Plug-In . SVG Version: 6.00 Build 0)  -->
<svg version="1.1" id="图层_1" xmlns="http://www.w3.org/2000/svg" xmlns:xlink="http://www.w3.org/1999/xlink" x="0px" y="0px"
	 viewBox="0 0 1024 1024" style="enable-background:new 0 0 1024 1024;" xml:space="preserve">
<g>
	<path d="M722.1,536.3L249.4,63.4c-14.5-14.5-14.5-38,0-52.5l0,0c14.5-14.5,38-14.5,52.5,0l472.8,472.9c14.5,14.5,14.5,38,0,52.5
		l0,0C760.1,550.8,736.6,550.8,722.1,536.3z"/>
	<path d="M774.6,540.2l-472.8,472.9c-14.5,14.5-38,14.5-52.5,0l0,0c-14.5-14.5-14.5-38,0-52.5l472.8-472.9c14.5-14.5,38-14.5,52.5,0
		l0,0C789.1,502.2,789.1,525.7,774.6,540.2z"/>
</g>
</svg>
