<?xml version="1.0" encoding="utf-8"?>
<!-- Generator: Adobe Illustrator 25.0.0, SVG Export Plug-In . SVG Version: 6.00 Build 0)  -->
<svg version="1.1" id="图层_1" xmlns="http://www.w3.org/2000/svg" xmlns:xlink="http://www.w3.org/1999/xlink" x="0px" y="0px"
	 viewBox="0 0 1024 1024" style="enable-background:new 0 0 1024 1024;" xml:space="preserve">
<g>
	<path d="M881,562H81c-27.6,0-50-22.4-50-50v0c0-27.6,22.4-50,50-50h800c27.6,0,50,22.4,50,50v0C931,539.6,908.6,562,881,562z"/>
	<path d="M907.6,540.7L695.5,328.6c-19.5-19.5-19.5-51.2,0-70.7l0,0c19.5-19.5,51.2-19.5,70.7,0L978.4,470
		c19.5,19.5,19.5,51.2,0,70.7l0,0C958.8,560.3,927.2,560.3,907.6,540.7z"/>
	<path d="M695.5,695.4l212.1-212.1c19.5-19.5,51.2-19.5,70.7,0l0,0c19.5,19.5,19.5,51.2,0,70.7L766.2,766.1
		c-19.5,19.5-51.2,19.5-70.7,0l0,0C676,746.6,676,714.9,695.5,695.4z"/>
</g>
</svg>
