<?xml version="1.0" encoding="utf-8"?>
<!-- Generator: Adobe Illustrator 25.0.0, SVG Export Plug-In . SVG Version: 6.00 Build 0)  -->
<svg version="1.1" id="图层_1" xmlns="http://www.w3.org/2000/svg" xmlns:xlink="http://www.w3.org/1999/xlink" x="0px" y="0px"
	 viewBox="0 0 400 400" style="enable-background:new 0 0 400 400;" xml:space="preserve">
<path d="M50,186.6v138.6c0,25.2,20.5,45.7,45.7,45.7h208.6c25.2,0,45.7-20.5,45.7-45.7V186.6c0-25.2-20.5-45.7-45.7-45.7H95.7
	C70.5,140.9,50,161.3,50,186.6z M300,350.9H100c-16.6,0-30-13.4-30-30v-130c0-16.6,13.4-30,30-30h200c16.6,0,30,13.4,30,30v130
	C330,337.4,316.6,350.9,300,350.9z"/>
<path d="M120.8,141.4c5.3-39,38.8-69.1,79.2-69.1s73.9,30.1,79.2,69.1h20.2C294,91.3,251.5,52.3,200,52.3s-94,39-99.4,89.1H120.8z"
	/>
</svg>
