<?xml version="1.0" encoding="utf-8"?>
<!-- Generator: Adobe Illustrator 25.0.0, SVG Export Plug-In . SVG Version: 6.00 Build 0)  -->
<svg version="1.1" id="图层_1" xmlns="http://www.w3.org/2000/svg" xmlns:xlink="http://www.w3.org/1999/xlink" x="0px" y="0px"
	 viewBox="0 0 1024 1024" style="enable-background:new 0 0 1024 1024;" xml:space="preserve">
<g>
	<path d="M143,462h800c27.6,0,50,22.4,50,50l0,0c0,27.6-22.4,50-50,50H143c-27.6,0-50-22.4-50-50l0,0C93,484.4,115.4,462,143,462z"
		/>
	<path d="M116.4,483.3l212.1,212.1c19.5,19.5,19.5,51.2,0,70.7l0,0c-19.5,19.5-51.2,19.5-70.7,0L45.6,554
		c-19.5-19.5-19.5-51.2,0-70.7l0,0C65.2,463.7,96.8,463.7,116.4,483.3z"/>
	<path d="M328.5,328.6L116.4,540.7c-19.5,19.5-51.2,19.5-70.7,0l0,0c-19.5-19.5-19.5-51.2,0-70.7l212.1-212.1
		c19.5-19.5,51.2-19.5,70.7,0l0,0C348,277.4,348,309.1,328.5,328.6z"/>
</g>
</svg>
