<?xml version="1.0" encoding="utf-8"?>
<!-- Generator: Adobe Illustrator 25.0.0, SVG Export Plug-In . SVG Version: 6.00 Build 0)  -->
<svg version="1.1" id="图层_1" xmlns="http://www.w3.org/2000/svg" xmlns:xlink="http://www.w3.org/1999/xlink" x="0px" y="0px"
	 viewBox="0 0 1024 1024" style="enable-background:new 0 0 1024 1024;" xml:space="preserve">
<path d="M512.2,66.8c-132.5,0-240,107.5-240,240s107.5,240,240,240s240-107.5,240-240S644.7,66.8,512.2,66.8z M512.2,506.8
	c-110.5,0-200-89.5-200-200s89.5-200,200-200s200,89.5,200,200S622.6,506.8,512.2,506.8z"/>
<path d="M490.6,545.4v382c0,12.4,10.1,22.5,22.5,22.5l0,0c12.4,0,22.5-10.1,22.5-22.5v-382c0-12.4-10.1-22.5-22.5-22.5l0,0
	C500.7,522.9,490.6,532.9,490.6,545.4z"/>
<path d="M321,728.5h382c12.4,0,22.5-10.1,22.5-22.5l0,0c0-12.4-10.1-22.5-22.5-22.5H321c-12.4,0-22.5,10.1-22.5,22.5l0,0
	C298.5,718.4,308.5,728.5,321,728.5z"/>
</svg>
