<?xml version="1.0" encoding="utf-8"?>
<!-- Generator: Adobe Illustrator 25.0.0, SVG Export Plug-In . SVG Version: 6.00 Build 0)  -->
<svg version="1.1" id="图层_1" xmlns="http://www.w3.org/2000/svg" xmlns:xlink="http://www.w3.org/1999/xlink" x="0px" y="0px"
	 viewBox="0 0 1024 1024" style="enable-background:new 0 0 1024 1024;" xml:space="preserve">
<path d="M422.9,135.3l-0.1-0.4c-3-10.3-14.5-15.5-24.2-10.9c-22,10.3-58.7,32.5-83.5,74.8c-5.3,9.1-1.6,20.7,8,25l0,0
	c7.9,3.5,17.1,0.7,21.8-6.5c10.1-15.6,31.6-42,69.2-61.4C421.6,152,425.3,143.4,422.9,135.3z"/>
<path d="M1004,811.1H20c-11,0-20-11.4-20-25.3l0,0c0-13.9,9-25.3,20-25.3h984c11,0,20,11.4,20,25.3l0,0
	C1024,799.9,1015,811.1,1004,811.1z"/>
<path d="M215.9,666.7"/>
<path d="M444.2,144.6"/>
<path d="M872.2,630.7c-6-288.1-9.7-461.5-117.3-557.6C723.7,45.2,653.8-2.9,512.5,0C371.2-2.8,301.3,45.2,270.1,73.1
	c-107.6,96.1-111.3,269.5-117.3,557.6c-1.3,60-0.3,109.3,0.6,141.2c18,0,35.9-0.1,53.9-0.1c-1.1-38.9-2-94.7-0.8-161.9
	c1.3-78.6,2.3-133.5,8.7-192.7C231,272,241.4,178.7,309.8,115.8c21.5-19.7,81.7-66.8,202.7-63.8c121.1-2.9,181.3,44.1,202.7,63.8
	c68.4,62.9,78.8,156.2,94.6,301.5c6.4,59.2,7.4,114.1,8.7,192.7c1.1,67.2,0.2,123-0.8,161.9c18,0,35.9,0.1,53.9,0.1
	C872.6,740,873.5,690.8,872.2,630.7z"/>
<path d="M967.9-403.2"/>
<path d="M677.2,802.9c0,91.2-74,165.2-165.2,165.2s-165.2-74-165.2-165.2c0-5.8,0.3-11.5,0.9-17.1h-56.1c-0.4,5.7-0.7,11.4-0.7,17.1
	c0,122.1,99,221.1,221.1,221.1s221.1-99,221.1-221.1c0-5.8-0.2-11.5-0.7-17.1h-56.1C676.9,791.4,677.2,797.1,677.2,802.9z"/>
</svg>
