<?xml version="1.0" encoding="utf-8"?>
<!-- Generator: Adobe Illustrator 25.0.0, SVG Export Plug-In . SVG Version: 6.00 Build 0)  -->
<svg version="1.1" id="图层_1" xmlns="http://www.w3.org/2000/svg" xmlns:xlink="http://www.w3.org/1999/xlink" x="0px" y="0px"
	 viewBox="0 0 1024 1024" style="enable-background:new 0 0 1024 1024;" xml:space="preserve">
<g>
	<path d="M400,46.9c47.7,0,93.9,9.3,137.4,27.7c42,17.8,79.8,43.3,112.3,75.7s57.9,70.2,75.7,112.3c18.4,43.5,27.7,89.8,27.7,137.4
		s-9.3,93.9-27.7,137.4c-17.8,42-43.3,79.8-75.7,112.3s-70.2,57.9-112.3,75.7c-43.5,18.4-89.8,27.7-137.4,27.7s-93.9-9.3-137.4-27.7
		c-42-17.8-79.8-43.3-112.3-75.7s-57.9-70.2-75.7-112.3C56.2,493.9,46.9,447.7,46.9,400s9.3-93.9,27.7-137.4
		c17.8-42,43.3-79.8,75.7-112.3s70.2-57.9,112.3-75.7C306.1,56.2,352.3,46.9,400,46.9L400,46.9 M400,0L400,0C179.1,0,0,179.1,0,400
		l0,0c0,220.9,179.1,400,400,400l0,0c220.9,0,400-179.1,400-400l0,0C800,179.1,620.9,0,400,0L400,0z"/>
</g>
<path d="M972.8,1015.2L732.4,774.8c-11.7-11.7-11.7-30.7,0-42.4l0,0c11.7-11.7,30.7-11.7,42.4,0l240.4,240.4
	c11.7,11.7,11.7,30.7,0,42.4l0,0C1003.5,1026.9,984.5,1026.9,972.8,1015.2z"/>
</svg>
