<?xml version="1.0" encoding="utf-8"?>
<!-- Generator: Adobe Illustrator 25.0.0, SVG Export Plug-In . SVG Version: 6.00 Build 0)  -->
<svg version="1.1" id="图层_1" xmlns="http://www.w3.org/2000/svg" xmlns:xlink="http://www.w3.org/1999/xlink" x="0px" y="0px"
	 viewBox="0 0 400 400" style="enable-background:new 0 0 400 400;" xml:space="preserve">
<path d="M214.9,9.7l48.9,103.8c2.4,5.1,7.1,8.7,12.5,9.5l109.4,16.7c13.6,2.1,19,19.6,9.2,29.6l-79.2,80.8c-3.9,4-5.7,9.7-4.8,15.4
	l18.7,114.1c2.3,14.2-11.9,25-24.1,18.3l-97.9-53.9c-4.8-2.7-10.6-2.7-15.4,0L94.4,398c-12.2,6.7-26.4-4.1-24.1-18.3L89,265.5
	c0.9-5.6-0.9-11.4-4.8-15.4L5,169.3c-9.9-10.1-4.4-27.6,9.2-29.6L123.7,123c5.4-0.8,10.1-4.4,12.5-9.5L185.1,9.7
	C191.2-3.2,208.8-3.2,214.9,9.7z"/>
</svg>
