<?xml version="1.0" encoding="utf-8"?>
<!-- Generator: Adobe Illustrator 25.0.0, SVG Export Plug-In . SVG Version: 6.00 Build 0)  -->
<svg version="1.1" id="图层_1" xmlns="http://www.w3.org/2000/svg" xmlns:xlink="http://www.w3.org/1999/xlink" x="0px" y="0px"
	 viewBox="0 0 400 400" style="enable-background:new 0 0 400 400;" xml:space="preserve">
<path d="M347.7,29.8C322.4,17.1,297.3,17,296.2,17s-26.1,0.1-51.5,12.9C228.5,38,210,52.6,200,78.1c-10-25.5-28.5-40.1-44.8-48.2
	C129.9,17.1,104.8,17,103.8,17s-26.1,0.1-51.5,12.9C28.4,41.8,0,67.4,0,121.1c0,34.6,39.6,69.4,85.5,109.7
	c50.1,44,107,93.9,107,144.8h15c0-50.9,56.8-100.8,107-144.8c45.9-40.3,85.5-75.1,85.5-109.7C400,67.4,371.6,41.8,347.7,29.8z
	 M304.6,219.5c-41.3,36.3-87,76.3-104.6,119.9c-17.6-43.5-63.3-83.6-104.6-119.9S15,148.9,15,121.1c0-36.8,14.7-62.9,43.5-77.6
	C80.7,32.2,103.3,32,103.8,32c0.4,0,23.1,0.3,45.2,11.5c28.9,14.7,43.5,40.8,43.5,77.6h15c0-36.8,14.7-62.9,43.5-77.6
	C273.2,32.2,295.9,32,296.2,32c0.3,0,23.1,0.2,45.2,11.5c28.9,14.7,43.5,40.8,43.5,77.6C385,148.9,345.9,183.2,304.6,219.5z"/>
</svg>
