<?xml version="1.0" encoding="utf-8"?>
<!-- Generator: Adobe Illustrator 25.0.0, SVG Export Plug-In . SVG Version: 6.00 Build 0)  -->
<svg version="1.1" id="图层_1" xmlns="http://www.w3.org/2000/svg" xmlns:xlink="http://www.w3.org/1999/xlink" x="0px" y="0px"
	 viewBox="0 0 400 400" style="enable-background:new 0 0 400 400;" xml:space="preserve">
<path d="M92.3,399.9c-5.1,0-10.2-1.6-14.5-4.6c-8.4-5.9-12.5-16-10.9-26.3l17.8-108.4c0.4-2.2-0.3-4.5-1.8-6L7.8,177.8
	c-7.1-7.2-9.5-17.7-6.2-27.4c3.1-9.4,11-16.2,20.6-17.6l104-15.8c1.8-0.3,3.5-1.6,4.4-3.4L176.9,15c4.2-9.2,13-15,23-15
	c0,0,0.1,0,0.1,0c10,0,18.8,5.7,23.1,15l46.5,98.6c0.9,1.9,2.4,3.1,4.4,3.4l104,15.8c9.6,1.5,17.5,8.2,20.6,17.6
	c3.2,9.7,0.8,20.2-6.2,27.4l-75.2,76.8c-1.5,1.5-2.2,3.8-1.8,5.9L333.2,369c1.7,10.3-2.5,20.4-10.9,26.3c-8,5.6-18.2,6.2-26.7,1.5
	l-93-51.2c-1.6-0.8-3.5-0.9-5.1,0l-93,51.2C100.7,398.9,96.5,399.9,92.3,399.9z M200,20C200,20,200,20,200,20c-1,0-3.5,0.3-4.9,3.4
	l-0.1,0.1l-46.5,98.6c-3.8,7.9-11,13.3-19.4,14.6l-104,15.8c-3.1,0.5-4.3,3.1-4.6,4.2c-0.3,1-1.2,4.4,1.6,7.1l75.2,76.8
	c5.9,6.1,8.6,14.8,7.2,23.2L86.7,372.2c-0.7,4,1.9,6.2,2.6,6.7c1.2,0.9,3.2,1.6,5.6,0.3l93-51.2c7.6-4.2,16.7-4.2,24.3,0l93,51.2
	c2.4,1.3,4.3,0.6,5.6-0.3c0.8-0.6,3.3-2.7,2.6-6.7l-17.8-108.4c-1.4-8.4,1.3-17.1,7.2-23.2l75.2-76.8c2.7-2.8,1.9-6.2,1.6-7.1
	c-0.4-1.1-1.5-3.7-4.6-4.2l-104-15.8c-8.5-1.3-15.8-6.8-19.5-14.6L205,23.4C203.6,20.3,201.1,20,200,20z"/>
</svg>
