<?xml version="1.0" encoding="utf-8"?>
<!-- Generator: Adobe Illustrator 25.0.0, SVG Export Plug-In . SVG Version: 6.00 Build 0)  -->
<svg version="1.1" id="图层_1" xmlns="http://www.w3.org/2000/svg" xmlns:xlink="http://www.w3.org/1999/xlink" x="0px" y="0px"
	 viewBox="0 0 400 400" style="enable-background:new 0 0 400 400;" xml:space="preserve">
<path d="M200,0L200,0C89.5,0,0,89.5,0,200v0c0,110.5,89.5,200,200,200h0c110.5,0,200-89.5,200-200v0C400,89.5,310.5,0,200,0z
	 M375,200c0,96.6-78.4,175-175,175h0c-96.6,0-175-78.4-175-175v0c0-96.6,78.4-175,175-175h0C296.6,25,375,103.4,375,200L375,200z"/>
<path d="M385,215h-12c-8.3,0-15-6.7-15-15v0c0-8.3,6.7-15,15-15h12c8.3,0,15,6.7,15,15v0C400,208.3,393.3,215,385,215z"/>
<path d="M27,215H15c-8.3,0-15-6.7-15-15v0c0-8.3,6.7-15,15-15h12c8.3,0,15,6.7,15,15v0C42,208.3,35.3,215,27,215z"/>
<path d="M215,15v12c0,8.3-6.7,15-15,15h0c-8.3,0-15-6.7-15-15V15c0-8.3,6.7-15,15-15h0C208.3,0,215,6.7,215,15z"/>
<path d="M215,373v12c0,8.3-6.7,15-15,15h0c-8.3,0-15-6.7-15-15v-12c0-8.3,6.7-15,15-15h0C208.3,358,215,364.7,215,373z"/>
<path d="M210,127.4V212c0,5.5-4.5,10-10,10h0c-5.5,0-10-4.5-10-10v-84.6c0-5.5,4.5-10,10-10h0C205.5,117.4,210,121.9,210,127.4z"/>
<path d="M306.1,210H183.6c-5.5,0-10-4.5-10-10v0c0-5.5,4.5-10,10-10h122.5c5.5,0,10,4.5,10,10v0C316.1,205.5,311.6,210,306.1,210z"
	/>
</svg>
