<?xml version="1.0" encoding="utf-8"?>
<!-- Generator: Adobe Illustrator 25.0.0, SVG Export Plug-In . SVG Version: 6.00 Build 0)  -->
<svg version="1.1" id="图层_1" xmlns="http://www.w3.org/2000/svg" xmlns:xlink="http://www.w3.org/1999/xlink" x="0px" y="0px"
	 viewBox="0 0 400 400" style="enable-background:new 0 0 400 400;" xml:space="preserve">
<path d="M200,0C89.5,0,0,89.5,0,200s89.5,200,200,200s200-89.5,200-200S310.5,0,200,0z M200,370c-93.9,0-170-76.1-170-170
	S106.1,30,200,30s170,76.1,170,170S293.9,370,200,370z"/>
<g>
	<path d="M155,285.6L155,285.6c-8.3,0-15-6.7-15-15v-130c0-8.3,6.7-15,15-15h0c8.3,0,15,6.7,15,15v130
		C170,278.9,163.3,285.6,155,285.6z"/>
	<path d="M245,285.6L245,285.6c-8.3,0-15-6.7-15-15v-130c0-8.3,6.7-15,15-15h0c8.3,0,15,6.7,15,15v130
		C260,278.9,253.3,285.6,245,285.6z"/>
</g>
</svg>
