<?xml version="1.0" encoding="utf-8"?>
<!-- Generator: Adobe Illustrator 25.0.0, SVG Export Plug-In . SVG Version: 6.00 Build 0)  -->
<svg version="1.1" id="图层_1" xmlns="http://www.w3.org/2000/svg" xmlns:xlink="http://www.w3.org/1999/xlink" x="0px" y="0px"
	 viewBox="0 0 1024 1024" style="enable-background:new 0 0 1024 1024;" xml:space="preserve">
<g>
	<path d="M847.3,539.5H176.6c-11.6,0-20.9-12.3-20.9-27.5l0,0c0-15.2,9.4-27.5,20.9-27.5h670.9c11.6,0,20.9,12.3,20.9,27.5l0,0
		C868.3,527.2,858.9,539.5,847.3,539.5z"/>
	<path d="M847.3,803.5H176.6c-11.6,0-20.9-12.3-20.9-27.5l0,0c0-15.2,9.4-27.5,20.9-27.5h670.9c11.6,0,20.9,12.3,20.9,27.5l0,0
		C868.3,791.2,858.9,803.5,847.3,803.5z"/>
	<path d="M847.3,275.5H176.6c-11.6,0-20.9-12.3-20.9-27.5l0,0c0-15.2,9.4-27.5,20.9-27.5h670.9c11.6,0,20.9,12.3,20.9,27.5l0,0
		C868.3,263.2,858.9,275.5,847.3,275.5z"/>
</g>
</svg>
