<?xml version="1.0" encoding="utf-8"?>
<!-- Generator: Adobe Illustrator 25.0.0, SVG Export Plug-In . SVG Version: 6.00 Build 0)  -->
<svg version="1.1" id="图层_1" xmlns="http://www.w3.org/2000/svg" xmlns:xlink="http://www.w3.org/1999/xlink" x="0px" y="0px"
	 viewBox="0 0 400 400" style="enable-background:new 0 0 400 400;" xml:space="preserve">
<path d="M158,184.8H59.3c-13.3,0-24.1-10.8-24.1-24.1V59.3C35.2,46,46,35.2,59.3,35.2H158c13.3,0,24.1,10.8,24.1,24.1v101.4
	C182.2,174,171.4,184.8,158,184.8z"/>
<path d="M158,364.8H59.3c-13.3,0-24.1-10.8-24.1-24.1V239.3c0-13.3,10.8-24.1,24.1-24.1H158c13.3,0,24.1,10.8,24.1,24.1v101.4
	C182.2,354,171.4,364.8,158,364.8z"/>
<path d="M340.7,364.8H242c-13.3,0-24.1-10.8-24.1-24.1V239.3c0-13.3,10.8-24.1,24.1-24.1h98.7c13.3,0,24.1,10.8,24.1,24.1v101.4
	C364.8,354,354,364.8,340.7,364.8z"/>
<path d="M291.3,184.8L291.3,184.8c-40.6,0-73.5-32.9-73.5-73.5v-2.6c0-40.6,32.9-73.5,73.5-73.5h0c40.6,0,73.5,32.9,73.5,73.5v2.6
	C364.8,151.9,331.9,184.8,291.3,184.8z"/>
</svg>
