<?xml version="1.0" encoding="utf-8"?>
<!-- Generator: Adobe Illustrator 25.0.0, SVG Export Plug-In . SVG Version: 6.00 Build 0)  -->
<svg version="1.1" id="图层_1" xmlns="http://www.w3.org/2000/svg" xmlns:xlink="http://www.w3.org/1999/xlink" x="0px" y="0px"
	 viewBox="0 0 1024 1024" style="enable-background:new 0 0 1024 1024;" xml:space="preserve">
<g>
	<path d="M512,61.1c61,0,120.2,11.9,175.9,35.5c53.8,22.8,102.2,55.4,143.7,96.9s74.1,89.9,96.9,143.7
		c23.6,55.7,35.5,114.9,35.5,175.9S952.1,633.3,928.5,689c-22.8,53.8-55.4,102.2-96.9,143.7s-89.9,74.1-143.7,96.9
		C632.2,953.2,573,965.1,512,965.1s-120.2-11.9-175.9-35.5c-53.8-22.8-102.2-55.4-143.7-96.9S118.3,742.8,95.5,689
		C71.9,633.3,60,574.1,60,513.1s11.9-120.2,35.5-175.9c22.8-53.8,55.4-102.2,96.9-143.7s89.9-74.1,143.7-96.9
		C391.8,73,451,61.1,512,61.1L512,61.1 M512,1.1L512,1.1C229.2,1.1,0,230.3,0,513.1l0,0c0,282.8,229.2,512,512,512l0,0
		c282.8,0,512-229.2,512-512l0,0C1024,230.3,794.8,1.1,512,1.1L512,1.1z"/>
</g>
<g>
	<path d="M782,542L242,542c-16.5,0-30-13.4-30-30l0,0c0-16.5,13.4-30,30-30H782c16.5,0,30,13.4,30,30l0,0
		C812,528.5,798.5,542,782,542z"/>
	<path d="M542,242V782c0,16.5-13.4,30-30,30l0,0c-16.5,0-30-13.4-30-30l0-539.9c0-16.5,13.4-30,30-30l0,0
		C528.5,212,542,225.5,542,242z"/>
</g>
</svg>
