<?xml version="1.0" encoding="utf-8"?>
<!-- Generator: Adobe Illustrator 25.0.0, SVG Export Plug-In . SVG Version: 6.00 Build 0)  -->
<svg version="1.1" id="图层_1" xmlns="http://www.w3.org/2000/svg" xmlns:xlink="http://www.w3.org/1999/xlink" x="0px" y="0px"
	 viewBox="0 0 1024 1024" style="enable-background:new 0 0 1024 1024;" xml:space="preserve">
<path d="M935.1,537.4H87.9c-14.6,0-26.4-11.8-26.4-26.4v0c0-14.6,11.8-26.4,26.4-26.4h847.3c14.6,0,26.4,11.8,26.4,26.4v0
	C961.5,525.6,949.7,537.4,935.1,537.4z"/>
<path d="M537.9,87.4v847.3c0,14.6-11.8,26.4-26.4,26.4h0c-14.6,0-26.4-11.8-26.4-26.4V87.4c0-14.6,11.8-26.4,26.4-26.4h0
	C526.1,61,537.9,72.8,537.9,87.4z"/>
</svg>
