<?xml version="1.0" encoding="utf-8"?>
<!-- Generator: Adobe Illustrator 25.0.0, SVG Export Plug-In . SVG Version: 6.00 Build 0)  -->
<svg version="1.1" id="图层_1" xmlns="http://www.w3.org/2000/svg" xmlns:xlink="http://www.w3.org/1999/xlink" x="0px" y="0px"
	 viewBox="0 0 1024 1024" style="enable-background:new 0 0 1024 1024;" xml:space="preserve">
<path d="M928.8,593h-45.4V403h45.4c8.1,0,14.6,6.7,14.6,15v160C943.3,586.3,936.8,593,928.8,593z"/>
<path d="M859.8,318H105.1c-12.5,0-22.7,10.5-22.7,23.5v313c0,13,10.2,23.5,22.7,23.5h754.7c12.6,0,22.7-10.5,22.7-23.5v-313
	C882.5,328.5,872.3,318,859.8,318z M842.4,638h-720V358h720V638z"/>
<rect x="197.4" y="398" width="570" height="200"/>
</svg>
