<?xml version="1.0" encoding="utf-8"?>
<!-- Generator: Adobe Illustrator 25.0.0, SVG Export Plug-In . SVG Version: 6.00 Build 0)  -->
<svg version="1.1" id="图层_1" xmlns="http://www.w3.org/2000/svg" xmlns:xlink="http://www.w3.org/1999/xlink" x="0px" y="0px"
	 viewBox="0 0 400 400" style="enable-background:new 0 0 400 400;" xml:space="preserve">
<path d="M400.6,391.1H-0.6V290.1l56.8-83.4c2.2-4.2,6.3-7.1,11.1-7.6c5.6-0.6,11.2,2.2,14.3,6.9l35,49.8l74.2-163.2l0.2-0.3
	c2.7-5,8-8,13.7-7.7c5.7,0.3,10.6,3.7,12.8,9l67.9,163.1l46.2-51.3c3.3-4.7,9-7.3,14.6-6.6c5.2,0.6,9.4,4,11.2,8.8l43.3,83.1V391.1z
	 M19.4,371.1h361.3v-75.4L342.8,223l-46.8,52c-3,4.3-8.1,6.8-13.4,6.5c-5.5-0.4-10.1-3.7-12.3-8.7l-66.6-160.1l-73.1,160.7l-0.2,0.3
	c-2.5,4.6-7.1,7.4-12.2,7.6c-5.2,0.2-10.1-2.4-13-6.7l-36-51.3l-49.8,73.2V371.1z"/>
<circle cx="67.4" cy="165" r="27.5"/>
<circle cx="347.5" cy="165" r="27.5"/>
<circle cx="204.4" cy="46.4" r="27.5"/>
<circle cx="204.4" cy="46.4" r="20"/>
</svg>
