<?xml version="1.0" encoding="utf-8"?>
<!-- Generator: Adobe Illustrator 25.0.0, SVG Export Plug-In . SVG Version: 6.00 Build 0)  -->
<svg version="1.1" id="图层_1" xmlns="http://www.w3.org/2000/svg" xmlns:xlink="http://www.w3.org/1999/xlink" x="0px" y="0px"
	 viewBox="0 0 1024 1024" style="enable-background:new 0 0 1024 1024;" xml:space="preserve">
<path d="M562,345.5v527.1c0,18.2-22.4,32.9-50,32.9l0,0c-27.6,0-50-14.8-50-32.9V345.5c0-18.2,22.4-32.9,50-32.9l0,0
	C539.6,312.5,562,327.3,562,345.5z"/>
<path d="M540.7,335.9L328.6,548c-19.5,19.5-51.2,19.5-70.7,0l0,0c-19.5-19.5-19.5-51.2,0-70.7L470,265.1c19.5-19.5,51.2-19.5,70.7,0
	l0,0C560.3,284.7,560.3,316.3,540.7,335.9z"/>
<path d="M695.4,548L483.3,335.9c-19.5-19.5-19.5-51.2,0-70.7l0,0c19.5-19.5,51.2-19.5,70.7,0l212.1,212.1
	c19.5,19.5,19.5,51.2,0,70.7l0,0C746.6,567.5,714.9,567.5,695.4,548z"/>
<path d="M186.3,150.5h665.4c23,0,41.6,22.4,41.6,50l0,0c0,27.6-18.6,50-41.6,50H186.3c-23,0-41.6-22.4-41.6-50l0,0
	C144.7,172.9,163.3,150.5,186.3,150.5z"/>
</svg>
