<?xml version="1.0" encoding="utf-8"?>
<!-- Generator: Adobe Illustrator 25.0.0, SVG Export Plug-In . SVG Version: 6.00 Build 0)  -->
<svg version="1.1" id="图层_1" xmlns="http://www.w3.org/2000/svg" xmlns:xlink="http://www.w3.org/1999/xlink" x="0px" y="0px"
	 viewBox="0 0 400 400" style="enable-background:new 0 0 400 400;" xml:space="preserve">
<g>
	<path d="M200,400C89.7,400,0,310.3,0,200S89.7,0,200,0s200,89.7,200,200S310.3,400,200,400z M200,15C98,15,15,98,15,200
		c0,102,83,185,185,185c102,0,185-83,185-185C385,98,302,15,200,15z"/>
	<g>
		<path d="M131.9,177.6c-17.9,0-32.5-14.6-32.5-32.5s14.6-32.5,32.5-32.5s32.5,14.6,32.5,32.5S149.9,177.6,131.9,177.6z
			 M131.9,127.6c-9.6,0-17.5,7.9-17.5,17.5s7.9,17.5,17.5,17.5s17.5-7.9,17.5-17.5S141.6,127.6,131.9,127.6z"/>
		<path d="M276.4,177.6c-17.9,0-32.5-14.6-32.5-32.5s14.6-32.5,32.5-32.5s32.5,14.6,32.5,32.5S294.3,177.6,276.4,177.6z
			 M276.4,127.6c-9.6,0-17.5,7.9-17.5,17.5s7.9,17.5,17.5,17.5s17.5-7.9,17.5-17.5S286,127.6,276.4,127.6z"/>
	</g>
	<path d="M200,345.5l-0.1,0c-22.9-0.4-48.7-2.6-67.1-15c-17.7-11.2-28.9-31.9-28.4-52.7l0-0.2c0.4-8.3,1.8-18.4,9.1-24
		c6.7-5.1,15.1-4,20.9-2.7c4.6,0.8,9.7,2.4,15.6,4.1c13.4,4,30.1,9.1,49.8,8.5l0.2,0l0.2,0c19.7,0.6,36.4-4.4,49.8-8.5
		c5.9-1.8,11-3.3,15.6-4.1c5.8-1.3,14.2-2.4,20.9,2.7c7.3,5.6,8.7,15.8,9.1,24l0,0.2c0.5,20.8-10.6,41.5-28.4,52.7
		c-18.3,12.4-44.2,14.5-67.1,15L200,345.5z M119.4,278.3c-0.3,15.4,8.3,31.3,21.5,39.7l0.2,0.1c15.1,10.2,38.2,12,58.9,12.4
		c20.7-0.4,43.8-2.2,58.9-12.4l0.2-0.1c13.2-8.3,21.8-24.2,21.5-39.7c-0.5-9.6-2.4-12.1-3.2-12.7c-0.7-0.6-2.8-1.3-8.7,0l-0.3,0.1
		c-3.8,0.7-8.6,2.1-14.1,3.8c-13.6,4.1-32.3,9.7-54.3,9.1c-22,0.6-40.7-5-54.3-9.1c-5.5-1.7-10.3-3.1-14.1-3.8l-0.3-0.1
		c-5.8-1.3-7.9-0.6-8.7,0C121.8,266.2,119.9,268.6,119.4,278.3z"/>
</g>
</svg>
