<?xml version="1.0" encoding="utf-8"?>
<!-- Generator: Adobe Illustrator 25.0.0, SVG Export Plug-In . SVG Version: 6.00 Build 0)  -->
<svg version="1.1" id="图层_1" xmlns="http://www.w3.org/2000/svg" xmlns:xlink="http://www.w3.org/1999/xlink" x="0px" y="0px"
	 viewBox="0 0 1024 1024" style="enable-background:new 0 0 1024 1024;" xml:space="preserve">
<style type="text/css">
	.st0{fill:#FFFFFF;}
</style>
<path d="M600.3,1023.6H424.9c-7.2,0-13.2-5.5-13.8-12.7l-13.3-151.4c-0.7-8.1,5.7-15.1,13.8-15.1h201.8c8.1,0,14.5,7,13.8,15.1
	l-13.1,151.4C613.6,1018.1,607.6,1023.6,600.3,1023.6z"/>
<path d="M936.1,811.8L812,935.9c-5.1,5.1-13.2,5.4-18.7,0.8L676.8,839c-6.2-5.2-6.7-14.7-0.9-20.5l142.7-142.7
	c5.8-5.8,15.2-5.3,20.5,0.9l97.8,116.4C941.5,798.6,941.2,806.7,936.1,811.8z"/>
<path d="M1023.4,424.6v175.4c0,7.2-5.5,13.2-12.7,13.8l-151.4,13.3c-8.1,0.7-15.1-5.7-15.1-13.8V411.5c0-8.1,7-14.5,15.1-13.8
	l151.4,13.1C1017.9,411.4,1023.4,417.4,1023.4,424.6z"/>
<path d="M811.3,87.7l124.1,124.1c5.1,5.1,5.4,13.2,0.8,18.7L838.5,347c-5.2,6.2-14.7,6.7-20.5,0.9L675.3,205.2
	c-5.8-5.8-5.3-15.2,0.9-20.5l116.4-97.8C798.1,82.3,806.2,82.6,811.3,87.7z"/>
<path d="M424,0.3h175.4c7.2,0,13.2,5.5,13.8,12.7l13.3,151.4c0.7,8.1-5.7,15.1-13.8,15.1H410.8c-8.1,0-14.5-7-13.8-15.1L410.1,13
	C410.8,5.8,416.8,0.3,424,0.3z"/>
<g>
	<path d="M88.2,213.9L212.2,89.9c5.1-5.1,13.2-5.4,18.7-0.8l116.5,97.7c6.2,5.2,6.7,14.7,0.9,20.5L205.6,349.9
		c-5.8,5.8-15.2,5.3-20.5-0.9L87.4,232.7C82.7,227.2,83.1,219,88.2,213.9z"/>
	<g>
		<path d="M0.6,601.4V425.9c0-7.2,5.5-13.2,12.7-13.8l151.4-13.3c8.1-0.7,15.1,5.7,15.1,13.8v201.8c0,8.1-7,14.5-15.1,13.8
			L13.3,615.2C6.1,614.6,0.6,608.6,0.6,601.4z"/>
		<g>
			<path d="M512.2,895.5L512.2,895.5C300.6,895.5,129,724,129,512.4v0c0-211.6,171.5-383.1,383.1-383.1h0
				c211.6,0,383.1,171.5,383.1,383.1v0C895.3,724,723.7,895.5,512.2,895.5z"/>
			<path d="M212.7,936.1L88.6,812c-5.1-5.1-5.4-13.2-0.8-18.7l97.7-116.5c5.2-6.2,14.7-6.7,20.5-0.9l142.7,142.7
				c5.8,5.8,5.3,15.2-0.9,20.5l-116.4,97.8C225.9,941.5,217.8,941.2,212.7,936.1z"/>
		</g>
	</g>
</g>
<path d="M600.5,1024H425.1c-7.2,0-13.2-5.5-13.8-12.7L398,859.9c-0.7-8.1,5.7-15.1,13.8-15.1h201.8c8.1,0,14.5,7,13.8,15.1
	l-13.1,151.4C613.7,1018.5,607.7,1024,600.5,1024z"/>
<path d="M600.5,1024H425.1c-7.2,0-13.2-5.5-13.8-12.7L398,859.9c-0.7-8.1,5.7-15.1,13.8-15.1h201.8c8.1,0,14.5,7,13.8,15.1
	l-13.1,151.4C613.7,1018.5,607.7,1024,600.5,1024z"/>
<path class="st0" d="M512,667.9L512,667.9c-86.2,0-156-69.8-156-156v0c0-86.1,69.8-156,156-156h0c86.1,0,156,69.8,156,156v0
	C668,598.1,598.1,667.9,512,667.9z"/>
</svg>
