<?xml version="1.0" encoding="utf-8"?>
<!-- Generator: Adobe Illustrator 25.0.0, SVG Export Plug-In . SVG Version: 6.00 Build 0)  -->
<svg version="1.1" id="图层_1" xmlns="http://www.w3.org/2000/svg" xmlns:xlink="http://www.w3.org/1999/xlink" x="0px" y="0px"
	 viewBox="0 0 1024 1024" style="enable-background:new 0 0 1024 1024;" xml:space="preserve">
<g>
	<path d="M512,60c61,0,120.2,11.9,175.9,35.5c53.8,22.8,102.2,55.4,143.7,96.9s74.1,89.9,96.9,143.7C952.1,391.8,964,451,964,512
		s-11.9,120.2-35.5,175.9c-22.8,53.8-55.4,102.2-96.9,143.7s-89.9,74.1-143.7,96.9C632.2,952.1,573,964,512,964
		s-120.2-11.9-175.9-35.5c-53.8-22.8-102.2-55.4-143.7-96.9s-74.1-89.9-96.9-143.7C71.9,632.2,60,573,60,512s11.9-120.2,35.5-175.9
		c22.8-53.8,55.4-102.2,96.9-143.7s89.9-74.1,143.7-96.9C391.8,71.9,451,60,512,60L512,60 M512,0L512,0C229.2,0,0,229.2,0,512l0,0
		c0,282.8,229.2,512,512,512l0,0c282.8,0,512-229.2,512-512l0,0C1024,229.2,794.8,0,512,0L512,0z"/>
</g>
<path d="M664.1,795.3"/>
<g>
	<path d="M353.7,399.7c-24,0-42.6-21.1-39.8-44.9c2.6-22.6,6.8-41.1,12.5-55.4c9.2-22.9,23.8-43.4,44-61.4
		c20.2-18,42.6-31.3,67.4-39.9c24.7-8.5,50.9-12.8,78.4-12.8c55.6,0,101.9,16.4,138.9,49c37,32.7,55.5,76.2,55.5,130.6
		c0,24.4-4.7,46.6-14.2,66.4c-9.5,19.9-29.6,44.6-60.5,74.2c-30.9,29.6-51.3,50.7-61.4,63.2c-10.1,12.5-17.7,27.5-22.9,44.9
		c-2.8,9.5-4.8,20.8-5.9,33.9c-1.7,20.5-19.2,36.2-39.8,36.2h0c-23.7,0-42.1-20.6-39.9-44.2c1.4-14.5,3.5-27.1,6.4-37.9
		c5.5-20.5,13.7-38.3,24.7-53.6c11-15.3,30.8-37.7,59.6-67.4c28.7-29.6,47.2-51.2,55.5-64.6c8.2-13.4,12.4-33.5,12.4-60
		s-9.5-50.1-28.4-70.6c-19-20.5-46.4-30.7-82.5-30.7c-70.7,0-110.6,36.5-119.8,109.4c-2.5,20.1-19.4,35.4-39.7,35.4H353.7z"/>
</g>
<path d="M512,840.3L512,840.3c-24.9,0-45-20.1-45-45v0c0-24.9,20.1-45,45-45h0c24.9,0,45,20.1,45,45v0
	C557,820.1,536.9,840.3,512,840.3z"/>
</svg>
