<?xml version="1.0" encoding="utf-8"?>
<!-- Generator: Adobe Illustrator 25.0.0, SVG Export Plug-In . SVG Version: 6.00 Build 0)  -->
<svg version="1.1" id="图层_1" xmlns="http://www.w3.org/2000/svg" xmlns:xlink="http://www.w3.org/1999/xlink" x="0px" y="0px"
	 viewBox="0 0 1024 1024" style="enable-background:new 0 0 1024 1024;" xml:space="preserve">
<g>
	<path d="M301.8,487.7l472.9,472.9c14.5,14.5,14.5,38,0,52.5l0,0c-14.5,14.5-38,14.5-52.5,0L249.3,540.2c-14.5-14.5-14.5-38,0-52.5
		l0,0C263.8,473.2,287.3,473.2,301.8,487.7z"/>
	<path d="M249.3,483.8L722.2,10.9c14.5-14.5,38-14.5,52.5,0l0,0c14.5,14.5,14.5,38,0,52.5L301.8,536.3c-14.5,14.5-38,14.5-52.5,0
		l0,0C234.8,521.8,234.8,498.3,249.3,483.8z"/>
</g>
</svg>
