<?xml version="1.0" encoding="utf-8"?>
<!-- Generator: Adobe Illustrator 25.0.0, SVG Export Plug-In . SVG Version: 6.00 Build 0)  -->
<svg version="1.1" id="图层_1" xmlns="http://www.w3.org/2000/svg" xmlns:xlink="http://www.w3.org/1999/xlink" x="0px" y="0px"
	 viewBox="0 0 1024 1024" style="enable-background:new 0 0 1024 1024;" xml:space="preserve">
<path d="M729.2,140.1L729.2,140.1c-7.6,13.1-3.5,29.9,9.3,38c26.1,16.6,50.4,36.1,72.6,58.3c39.2,39.2,69.9,84.8,91.4,135.6
	c22.3,52.6,33.5,108.4,33.5,166c0,57.6-11.2,113.4-33.5,166c-21.5,50.8-52.3,96.4-91.4,135.6s-84.8,69.9-135.6,91.4
	c-52.6,22.3-108.4,33.5-166,33.5c-57.6,0-113.4-11.2-166-33.5c-50.8-21.5-96.4-52.3-135.6-91.4s-69.9-84.8-91.4-135.6
	c-22.3-52.6-33.5-108.4-33.5-166c0-57.6,11.2-113.4,33.5-166c21.5-50.8,52.3-96.4,91.4-135.6c19.7-19.7,41.1-37.3,64-52.7
	c12.4-8.3,16.3-24.8,8.8-37.7l0,0c-8.2-14.2-26.6-18.5-40.2-9.4C111.5,223.3,26.5,370.7,26.5,538c0,266.8,216.2,483,483,483
	s483-216.2,483-483c0-171.4-89.2-321.9-223.7-407.6C755.3,121.7,737.2,126.1,729.2,140.1z"/>
<path d="M509.6,468.9L509.6,468.9c-16.6,0-30-13.4-30-30V30c0-16.6,13.4-30,30-30h0c16.6,0,30,13.4,30,30v408.9
	C539.6,455.5,526.1,468.9,509.6,468.9z"/>
<path d="M509.6,573.5L509.6,573.5c-16.6,0-30-13.4-30-30v0c0-16.6,13.4-30,30-30h0c16.6,0,30,13.4,30,30v0
	C539.6,560,526.1,573.5,509.6,573.5z"/>
</svg>
