<?xml version="1.0" encoding="utf-8"?>
<!-- Generator: Adobe Illustrator 25.0.0, SVG Export Plug-In . SVG Version: 6.00 Build 0)  -->
<svg version="1.1" id="图层_1" xmlns="http://www.w3.org/2000/svg" xmlns:xlink="http://www.w3.org/1999/xlink" x="0px" y="0px"
	 viewBox="0 0 1024 1024" style="enable-background:new 0 0 1024 1024;" xml:space="preserve">
<path d="M395.8,469.9H122.3c-36.9,0-66.8-29.9-66.8-66.8V122.3c0-36.9,29.9-66.8,66.8-66.8h273.5c36.9,0,66.8,29.9,66.8,66.8v280.8
	C462.6,440,432.7,469.9,395.8,469.9z"/>
<path d="M395.8,968.5H122.3c-36.9,0-66.8-29.9-66.8-66.8V620.9c0-36.9,29.9-66.8,66.8-66.8h273.5c36.9,0,66.8,29.9,66.8,66.8v280.8
	C462.6,938.6,432.7,968.5,395.8,968.5z"/>
<path d="M901.7,968.5H628.2c-36.9,0-66.8-29.9-66.8-66.8V620.9c0-36.9,29.9-66.8,66.8-66.8h273.5c36.9,0,66.8,29.9,66.8,66.8v280.8
	C968.5,938.6,938.6,968.5,901.7,968.5z"/>
<path d="M970.2,402.4l-253,103.9c-34.1,14-73.1-2.3-87.2-36.4L523.3,210.2c-14-34.1,2.3-73.1,36.4-87.2l253-103.9
	c34.1-14,73.1,2.3,87.2,36.4l106.7,259.8C1020.6,349.3,1004.3,388.4,970.2,402.4z"/>
</svg>
