<?xml version="1.0" encoding="utf-8"?>
<!-- Generator: Adobe Illustrator 25.0.0, SVG Export Plug-In . SVG Version: 6.00 Build 0)  -->
<svg version="1.1" id="图层_1" xmlns="http://www.w3.org/2000/svg" xmlns:xlink="http://www.w3.org/1999/xlink" x="0px" y="0px"
	 viewBox="0 0 400 400" style="enable-background:new 0 0 400 400;" xml:space="preserve">
<path d="M203.3,0.7h-1.9c-4.6,0-9,1.8-12.2,5.1L99.2,95.7c-1.3,1.3-3.1,2-4.9,2c0,0-8.1,0-19.5,0h1.1c0,0,0,0-0.1,0H5.6
	c-5.5,0-5.4,5.4-5.4,5.4l-0.1,192c0,0-1,7,3.8,7c3.4,0,90.4,0,90.4,0c1.8,0,3.6,0.7,4.9,2l89.9,89.9c3.2,3.2,7.7,5.1,12.2,5.1h1.9
	c9.6,0,17.3-7.8,17.3-17.3V97.8V18C220.6,8.5,212.9,0.7,203.3,0.7z"/>
<g>
	<path d="M332,111.5L332,111.5c0,3.8,1.7,7.4,4.7,9.8C360,139.6,375,168,375,200s-15,60.4-38.3,78.7c-3,2.4-4.7,6-4.7,9.8v0
		c0,10.4,12,16.3,20.2,9.8c29.1-22.9,47.8-58.4,47.8-98.3s-18.7-75.4-47.8-98.3C344,95.2,332,101.1,332,111.5z"/>
	<path d="M288.8,150.9L288.8,150.9c0,1.8,0.4,3.7,1.2,5.3c6.4,13.2,10.1,28.1,10.1,43.8s-3.6,30.5-10.1,43.8
		c-0.8,1.7-1.2,3.5-1.2,5.3v0c0,13.2,17.9,17.4,23.7,5.5c8-16.5,12.5-35,12.5-54.6s-4.5-38.1-12.5-54.6
		C306.7,133.5,288.8,137.7,288.8,150.9z"/>
</g>
</svg>
